HIERARCHY
ROOT Hips
{
	OFFSET 0 0 0
	CHANNELS 6 Xposition Yposition Zposition Yrotation Xrotation Zrotation
	JOINT Spine
	{
		OFFSET -0 8.38078 -2.67137
		CHANNELS 3 Yrotation Xrotation Zrotation
		JOINT Spine1
		{
			OFFSET -0 10.2701 0
			CHANNELS 3 Yrotation Xrotation Zrotation
			JOINT Spine2
			{
				OFFSET -0 10.2701 0
				CHANNELS 3 Yrotation Xrotation Zrotation
				JOINT Spine3
				{
					OFFSET -0 10.2701 0
					CHANNELS 3 Yrotation Xrotation Zrotation
					JOINT Neck
					{
						OFFSET -0 16.9472 3.67137
						CHANNELS 3 Yrotation Xrotation Zrotation
						JOINT Head
						{
							OFFSET -0 10.476 0
							CHANNELS 3 Yrotation Xrotation Zrotation
							End Site
							{
								OFFSET -0 15 0
							}
						}
					}
					JOINT LeftShoulder
					{
						OFFSET 1.74599 4.87741 3.49199
						CHANNELS 3 Yrotation Xrotation Zrotation
						JOINT LeftArm
						{
							OFFSET 19.9293 0 0
							CHANNELS 3 Yrotation Xrotation Zrotation
							JOINT LeftForeArm
							{
								OFFSET 25.2203 0 0
								CHANNELS 3 Yrotation Xrotation Zrotation
								JOINT LeftHand
								{
									OFFSET 22.6882 0 0
									CHANNELS 3 Yrotation Xrotation Zrotation
									End Site
									{
										OFFSET 15 0 0
									}
								}
							}
						}
					}
					JOINT RightShoulder
					{
						OFFSET -1.74599 4.87741 3.49199
						CHANNELS 3 Yrotation Xrotation Zrotation
						JOINT RightArm
						{
							OFFSET -19.9293 0 0
							CHANNELS 3 Yrotation Xrotation Zrotation
							JOINT RightForeArm
							{
								OFFSET -25.2203 0 0
								CHANNELS 3 Yrotation Xrotation Zrotation
								JOINT RightHand
								{
									OFFSET -22.6882 0 0
									CHANNELS 3 Yrotation Xrotation Zrotation
									End Site
									{
										OFFSET -15 0 0
									}
								}
							}
						}
					}
				}
			}
		}
	}
	JOINT LeftUpLeg
	{
		OFFSET 10.476 -3.49199 2
		CHANNELS 3 Yrotation Xrotation Zrotation
		JOINT LeftLeg
		{
			OFFSET -0 -42.329 2.44439
			CHANNELS 3 Yrotation Xrotation Zrotation
			JOINT LeftFoot
			{
				OFFSET -0 -39.8175 -2.44439
				CHANNELS 3 Yrotation Xrotation Zrotation
				JOINT LeftToeBase
				{
					OFFSET -0 -6.74129 15.714
					CHANNELS 3 Yrotation Xrotation Zrotation
					End Site
					{
						OFFSET -0 0 5
					}
				}
			}
		}
	}
	JOINT RightUpLeg
	{
		OFFSET -10.476 -3.49199 2
		CHANNELS 3 Yrotation Xrotation Zrotation
		JOINT RightLeg
		{
			OFFSET -0 -42.329 2.44439
			CHANNELS 3 Yrotation Xrotation Zrotation
			JOINT RightFoot
			{
				OFFSET -0 -39.8175 -2.44439
				CHANNELS 3 Yrotation Xrotation Zrotation
				JOINT RightToeBase
				{
					OFFSET -0 -6.74129 15.714
					CHANNELS 3 Yrotation Xrotation Zrotation
					End Site
					{
						OFFSET -0 0 5
					}
				}
			}
		}
	}
}
MOTION
Frames: 10
Frame Time: 0.00833333
182.446423 94.113385 98.252130 175.328150 -2.852365 0.431045 0.750567 1.340053 -0.070272 0.706550 1.474129 -0.148415 0.617721 1.457201 -0.094132 0.573057 1.487235 -0.024040 -2.052898 -0.030185 -0.988919 -0.852029 4.450546 -0.232771 15.020664 8.100024 -1.935742 -51.114418 -1.011073 -66.933746 -11.648690 4.786048 9.857529 3.292884 -12.378318 -2.743582 -11.541394 8.826759 6.224911 38.645414 -1.023286 66.934226 13.634495 3.026845 -8.605256 -5.098295 -11.748109 5.048046 10.179207 8.850044 3.807801 0.000000 0.526961 0.000000 6.417830 0.268252 -1.125423 0.000000 -10.734864 0.000000 -9.396994 8.324600 -4.386794 0.000000 -0.309476 0.000000 -1.721074 -1.184352 -3.445661 0.000000 -4.011224 0.000000
182.447876 94.114410 98.242822 175.324153 -2.850599 0.430469 0.743497 1.342128 -0.078191 0.698963 1.467172 -0.152661 0.615061 1.452120 -0.093839 0.570716 1.491969 -0.023078 -2.046810 -0.034340 -0.979765 -0.849509 4.453463 -0.226328 15.020770 8.103529 -1.937453 -51.112778 -1.015756 -66.940742 -11.656885 4.795765 9.866629 3.315003 -12.356680 -2.757203 -11.543872 8.822538 6.242895 38.633628 -1.036504 66.935662 13.676618 2.998269 -8.612127 -4.957452 -11.716613 5.066060 10.176228 8.853658 3.808487 0.000000 0.528198 0.000000 6.423508 0.269322 -1.103373 0.000000 -10.740785 0.000000 -9.401156 8.325383 -4.383230 0.000000 -0.303533 0.000000 -1.705067 -1.206571 -3.482627 0.000000 -3.964359 0.000000
182.446606 94.113348 98.235022 175.311144 -2.847752 0.428697 0.741212 1.363777 -0.084103 0.695351 1.458651 -0.154528 0.625806 1.471698 -0.090961 0.579049 1.451807 -0.013520 -2.055733 -0.088646 -0.979641 -0.853343 4.510498 -0.232730 15.038587 8.102860 -1.948726 -51.163726 -1.010064 -66.956679 -11.674107 4.801440 9.880890 3.387496 -12.388039 -2.735934 -11.583692 8.813822 6.247150 38.596959 -1.029085 66.950466 13.710262 3.044672 -8.618863 -4.953081 -11.703042 5.094607 10.183321 8.856791 3.808740 0.000000 0.531670 0.000000 6.424934 0.257853 -1.093927 0.000000 -10.667862 0.000000 -9.392570 8.326356 -4.384016 0.000000 -0.304504 0.000000 -1.699276 -1.205915 -3.458343 0.000000 -3.970589 0.000000
182.446155 94.112769 98.225299 175.302528 -2.844875 0.427493 0.739051 1.362262 -0.086726 0.693203 1.466404 -0.150866 0.633935 1.449065 -0.085739 0.588854 1.464953 -0.010174 -2.072171 -0.097366 -1.003201 -0.859080 4.507666 -0.221414 15.011451 8.108651 -1.967786 -51.146904 -1.017534 -66.948937 -11.681500 4.802099 9.871219 3.388651 -12.351370 -2.735220 -11.620368 8.807121 6.247930 38.593767 -1.038363 66.958352 13.690876 3.081509 -8.616097 -5.113245 -11.721670 5.164897 10.182532 8.860875 3.810895 0.000000 0.535204 0.000000 6.442758 0.246814 -1.135625 0.000000 -10.732965 0.000000 -9.387201 8.327674 -4.382954 0.000000 -0.303129 0.000000 -1.693639 -1.210505 -3.468779 0.000000 -3.979041 0.000000
182.446289 94.112274 98.218555 175.295532 -2.842983 0.422169 0.735880 1.375098 -0.080154 0.689484 1.455226 -0.148950 0.630007 1.437702 -0.089676 0.587358 1.469278 -0.020032 -2.071013 -0.101605 -1.004058 -0.858618 4.503019 -0.222257 15.015937 8.121178 -1.972407 -51.144217 -1.024356 -66.932888 -11.685633 4.822079 9.874395 3.409869 -12.359368 -2.825247 -11.626424 8.800098 6.264257 38.632145 -1.031098 66.976087 13.675777 3.088212 -8.643211 -5.104767 -11.753615 5.193916 10.180540 8.864643 3.814634 0.000000 0.535030 0.000000 6.444337 0.243503 -1.135267 0.000000 -10.657780 0.000000 -9.399284 8.325656 -4.380895 0.000000 -0.296274 0.000000 -1.672486 -1.218213 -3.467060 0.000000 -3.952685 0.000000
182.446716 94.110828 98.210028 175.287663 -2.840497 0.421126 0.730217 1.375315 -0.080663 0.684027 1.454845 -0.150990 0.641573 1.427522 -0.095047 0.598566 1.464738 -0.020201 -2.081544 -0.081161 -0.997355 -0.863690 4.473360 -0.226055 14.990226 8.132117 -1.964834 -51.134675 -1.041097 -66.933493 -11.683187 4.819533 9.860520 3.402455 -12.353822 -2.815787 -11.643386 8.805146 6.277864 38.600173 -1.035420 66.982343 13.682094 3.137893 -8.639748 -5.093842 -11.787654 5.196049 10.177329 8.867772 3.815316 0.000000 0.538513 0.000000 6.449593 0.238855 -1.130087 0.000000 -10.668347 0.000000 -9.394810 8.326865 -4.380439 0.000000 -0.293845 0.000000 -1.669793 -1.221514 -3.450931 0.000000 -3.963634 0.000000
182.448096 94.110901 98.201422 175.271955 -2.838267 0.424600 0.734528 1.376366 -0.084534 0.688554 1.453424 -0.155708 0.636651 1.425832 -0.096759 0.594109 1.461884 -0.021374 -2.080165 -0.087874 -0.997830 -0.863332 4.461876 -0.230513 14.999735 8.129355 -1.963709 -51.145036 -1.038102 -66.937303 -11.694163 4.793322 9.891107 3.436223 -12.258121 -2.909794 -11.645387 8.801956 6.293418 38.653614 -1.018751 66.993542 13.668923 3.079145 -8.668435 -5.090652 -11.766651 5.202749 10.189786 8.868466 3.814564 0.000000 0.545719 0.000000 6.459468 0.230603 -1.123037 0.000000 -10.721945 0.000000 -9.385355 8.329064 -4.383063 0.000000 -0.298529 0.000000 -1.664954 -1.221420 -3.468073 0.000000 -3.963229 0.000000
182.443835 94.110645 98.186963 175.218772 -2.828143 0.412577 0.755094 1.339364 -0.049465 0.712568 1.475082 -0.150094 0.631288 1.435525 -0.113629 0.589438 1.442426 -0.043692 -2.076993 -0.079849 -1.000275 -0.861889 4.462823 -0.231340 15.010684 8.114910 -1.964164 -51.170575 -1.003056 -66.937060 -11.694301 4.811193 9.877225 3.420216 -12.307748 -2.907732 -11.651675 8.799635 6.317014 38.649113 -1.009268 67.006947 13.664226 3.086545 -8.674659 -5.080717 -11.833051 5.196217 10.243208 8.883388 3.828905 0.000000 0.521651 0.000000 6.471659 0.225611 -1.091160 0.000000 -10.724469 0.000000 -9.347429 8.324962 -4.372144 0.000000 -0.300461 0.000000 -1.651656 -1.216148 -3.435330 0.000000 -3.962250 0.000000
182.443237 94.109296 98.177618 175.204366 -2.825381 0.411327 0.760449 1.345459 -0.046444 0.717161 1.459668 -0.149561 0.624928 1.428110 -0.114227 0.583398 1.450318 -0.043673 -2.162434 0.046325 -0.940144 -0.907960 4.233434 -0.391354 15.005204 8.112609 -1.970589 -51.158096 -1.003307 -66.939152 -11.706691 4.821906 9.853047 3.458144 -12.379308 -2.842953 -11.657972 8.798649 6.320391 38.639292 -1.016513 67.009786 13.667665 3.090605 -8.665169 -5.098966 -11.850650 5.190448 10.238614 8.888681 3.827639 0.000000 0.531855 0.000000 6.489034 0.203918 -1.152632 0.000000 -10.704736 0.000000 -9.345620 8.325144 -4.372655 0.000000 -0.301564 0.000000 -1.637245 -1.217480 -3.444645 0.000000 -3.959574 0.000000
182.442993 94.107892 98.169574 175.192920 -2.822892 0.411350 0.758474 1.348468 -0.048202 0.714535 1.449357 -0.148830 0.620937 1.423046 -0.112602 0.580015 1.449380 -0.045083 -2.065282 -0.072506 -1.034499 -0.855561 4.465843 -0.232672 15.016251 8.104495 -1.977172 -51.174212 -0.986172 -66.946474 -11.697666 4.832417 9.857036 3.454247 -12.413809 -2.805321 -11.647023 8.804936 6.329672 38.606595 -1.029619 67.010590 13.659716 3.098411 -8.658248 -5.094072 -11.878865 5.174309 10.238953 8.890863 3.827182 0.000000 0.536136 0.000000 6.501638 0.197024 -1.156679 0.000000 -10.703868 0.000000 -9.339827 8.327438 -4.373832 0.000000 -0.302401 0.000000 -1.630886 -1.225938 -3.437577 0.000000 -3.956242 0.000000
